<?xml version="1.0" standalone="no"?>
<!DOCTYPE svg PUBLIC "-//W3C//DTD SVG 20010904//EN"
 "http://www.w3.org/TR/2001/REC-SVG-20010904/DTD/svg10.dtd">
<svg version="1.0" xmlns="http://www.w3.org/2000/svg"
 width="500.000000pt" height="500.000000pt" viewBox="0 0 500.000000 500.000000"
 preserveAspectRatio="xMidYMid meet">

<g transform="translate(0.000000,500.000000) scale(0.100000,-0.100000)"
fill="#000000" stroke="none">
<path d="M380 3510 c0 -25 4 -27 76 -37 84 -12 118 -31 149 -84 19 -32 20 -55
23 -341 l3 -308 145 0 144 0 0 233 c0 260 11 390 35 437 11 21 32 39 62 52 43
19 60 20 212 15 274 -9 415 -60 556 -201 116 -116 182 -256 216 -458 l13 -78
154 0 154 0 -7 37 c-32 170 -127 360 -237 474 -133 137 -275 211 -508 262 -90
20 -124 21 -642 22 l-548 1 0 -26z"/>
<path d="M2650 3510 c0 -26 3 -28 63 -34 98 -11 144 -36 170 -93 20 -45 22
-65 25 -345 l4 -298 143 0 144 0 3 308 c3 286 4 309 23 341 31 53 65 72 149
84 73 11 76 12 76 38 l0 26 -400 0 -400 0 0 -27z"/>
<path d="M3830 3511 c0 -26 4 -28 62 -39 107 -20 142 -65 119 -152 -19 -71
-80 -164 -239 -368 -82 -103 -152 -193 -156 -200 -5 -9 4 -12 31 -12 38 0 38
1 257 280 121 155 244 303 273 330 58 53 148 101 226 120 41 11 47 16 47 39
l0 27 -310 1 -310 1 0 -27z"/>
<path d="M658 2608 c7 -7 12 -44 12 -95 0 -68 -3 -84 -17 -92 -14 -8 -1 -10
51 -11 64 0 70 2 102 34 46 46 48 104 5 147 -27 26 -36 29 -97 29 -53 0 -65
-3 -56 -12z m130 -31 c26 -25 30 -91 7 -124 -20 -28 -72 -40 -91 -21 -12 11
-13 32 -8 97 l7 82 31 -7 c17 -3 41 -15 54 -27z"/>
<path d="M973 2609 c24 -14 25 -154 0 -181 -15 -17 -13 -18 60 -18 l77 0 -1
33 c0 29 -1 30 -9 10 -8 -19 -17 -23 -50 -23 l-40 0 0 40 0 40 40 0 c22 0 40
5 40 10 0 6 -18 10 -40 10 -41 0 -50 13 -34 54 8 22 74 22 74 1 0 -8 5 -15 10
-15 6 0 10 11 10 25 0 25 -1 25 -77 25 -58 -1 -73 -3 -60 -11z"/>
<path d="M1258 2608 c7 -7 12 -44 12 -95 0 -68 -3 -84 -17 -92 -14 -8 2 -10
58 -11 75 0 77 1 83 26 9 34 1 42 -14 15 -8 -16 -20 -21 -51 -21 l-40 0 3 38
c3 35 5 37 41 40 47 4 49 22 2 22 -33 0 -35 2 -35 35 0 33 2 35 35 35 24 0 35
-5 35 -15 0 -8 5 -15 10 -15 6 0 10 11 10 25 0 24 -2 25 -72 25 -56 0 -69 -3
-60 -12z"/>
<path d="M1538 2613 c16 -6 17 -174 0 -191 -9 -9 -2 -12 33 -12 35 1 40 3 27
11 -11 6 -18 22 -18 39 0 25 4 30 25 30 33 0 75 42 75 73 0 40 -29 57 -96 56
-32 0 -53 -3 -46 -6z m86 -13 c20 -7 26 -17 26 -38 0 -34 -16 -52 -47 -52 -21
0 -23 4 -23 50 0 53 3 56 44 40z"/>
<path d="M1825 2525 c-21 -52 -41 -95 -46 -95 -5 0 -9 -4 -9 -10 0 -5 19 -10
43 -9 35 0 38 2 20 9 -26 11 -26 10 -13 44 8 21 16 26 45 26 29 0 36 -4 41
-27 5 -19 2 -30 -11 -40 -17 -11 -13 -13 30 -13 48 0 48 0 29 18 -10 10 -30
57 -43 105 -14 51 -30 87 -37 87 -7 0 -29 -43 -49 -95z m60 8 c6 -31 5 -33
-19 -33 -29 0 -31 4 -15 49 13 37 24 31 34 -16z"/>
<path d="M2238 2608 c7 -7 12 -43 12 -91 0 -64 -3 -82 -17 -93 -16 -12 -13
-13 27 -13 40 0 43 1 28 13 -18 13 -26 86 -10 86 4 0 25 -22 45 -50 29 -38 44
-50 64 -50 27 0 27 0 6 15 -12 8 -36 33 -54 56 l-32 40 49 50 48 49 -39 -1
c-22 0 -34 -3 -27 -6 21 -8 14 -27 -23 -63 l-35 -34 0 40 c0 22 5 45 12 52 9
9 3 12 -27 12 -30 0 -36 -3 -27 -12z"/>
<path d="M2516 2612 c7 -4 13 -43 15 -90 5 -95 17 -112 79 -112 62 0 74 17 79
112 2 47 8 86 15 90 6 4 -7 8 -29 8 -32 -1 -36 -3 -22 -11 14 -8 17 -24 17
-82 0 -44 -5 -78 -12 -85 -20 -20 -76 -15 -88 7 -14 27 -13 144 2 159 9 9 3
12 -27 12 -22 0 -35 -4 -29 -8z"/>
<path d="M2844 2607 c17 -12 18 -23 11 -90 -3 -42 -11 -79 -16 -83 -19 -12 -8
-24 23 -24 27 0 29 2 17 13 -12 9 -14 26 -9 82 6 68 6 69 19 40 7 -16 21 -52
31 -80 9 -27 21 -49 25 -48 5 1 20 33 34 72 15 38 29 72 32 75 11 11 18 -128
7 -141 -8 -10 -3 -13 22 -13 25 0 30 3 22 13 -6 6 -13 49 -17 93 -7 73 -5 83
11 93 16 10 14 11 -15 9 -33 -3 -35 -6 -59 -75 -13 -40 -27 -73 -31 -73 -4 0
-18 34 -31 75 -23 75 -24 75 -59 75 -31 0 -33 -1 -17 -13z"/>
<path d="M3230 2533 c-18 -49 -39 -96 -48 -105 -14 -17 -12 -18 29 -17 24 1
36 3 27 6 -21 5 -24 43 -6 61 17 17 65 15 72 -4 11 -29 6 -52 -11 -57 -10 -3
3 -5 30 -6 45 -1 63 11 33 22 -13 5 -24 36 -62 170 -11 37 -33 13 -64 -70z
m56 -1 c6 -30 5 -32 -21 -32 -21 0 -26 4 -21 16 3 9 9 27 12 41 8 30 21 19 30
-25z"/>
<path d="M3463 2605 c10 -7 31 -53 46 -101 15 -48 32 -89 38 -91 6 -2 22 27
36 64 l25 68 20 -65 c11 -36 25 -65 32 -65 7 0 28 40 47 89 18 50 39 96 45
103 8 10 2 13 -33 12 -38 0 -41 -2 -21 -10 26 -10 26 -10 -10 -107 -11 -29
-22 -51 -25 -49 -2 3 -13 37 -23 76 -17 66 -17 72 -2 81 13 7 6 9 -27 10 -42
0 -43 -1 -28 -18 21 -23 21 -23 -5 -94 -24 -67 -28 -64 -52 27 -14 56 -14 61
1 73 14 10 9 12 -33 12 -44 -1 -47 -2 -31 -15z"/>
<path d="M3926 2586 c-8 -19 -24 -62 -37 -95 -12 -34 -26 -61 -30 -61 -5 0 -9
-4 -9 -10 0 -5 19 -10 43 -9 35 0 38 2 20 9 -13 5 -23 14 -23 20 0 52 71 70
92 24 11 -22 10 -28 -7 -40 -17 -13 -14 -14 31 -14 44 1 47 2 31 15 -11 7 -31
53 -46 101 -15 48 -33 90 -39 92 -6 2 -18 -12 -26 -32z m38 -58 c6 -26 4 -28
-23 -28 -20 0 -29 4 -26 13 24 67 27 72 34 57 5 -8 11 -27 15 -42z"/>
<path d="M4138 2595 c-6 -30 3 -32 20 -5 7 11 21 20 32 20 18 0 20 -7 20 -84
0 -76 -2 -86 -22 -100 -21 -15 -20 -16 32 -15 47 0 52 2 33 11 -21 10 -23 18
-23 95 0 69 3 85 17 90 10 4 23 -2 35 -17 21 -26 30 -24 21 8 -5 20 -11 22
-83 22 -75 0 -78 -1 -82 -25z"/>
<path d="M628 1883 c-3 -355 -4 -380 -23 -418 -24 -48 -55 -65 -152 -78 -70
-11 -73 -12 -73 -38 l0 -27 443 -4 c243 -3 485 -1 537 4 495 45 848 345 951
807 31 143 44 131 -131 131 -112 0 -152 -3 -154 -12 -2 -7 -9 -58 -15 -113
-47 -411 -202 -632 -506 -720 -178 -51 -440 -57 -510 -11 -63 41 -75 128 -75
554 l0 302 -144 0 -145 0 -3 -377z"/>
<path d="M2910 1938 c-1 -505 -7 -525 -178 -550 -80 -12 -82 -13 -82 -40 l0
-28 400 0 400 0 0 28 c0 27 -2 28 -73 39 -97 13 -128 30 -152 78 -19 38 -20
63 -23 418 l-3 377 -145 0 -144 0 0 -322z"/>
<path d="M3506 2248 c4 -7 114 -173 244 -368 131 -196 245 -370 254 -387 33
-65 10 -98 -76 -109 -45 -6 -48 -9 -48 -35 l0 -29 350 0 350 0 0 28 c0 24 -6
29 -52 46 -67 23 -139 68 -176 110 -16 18 -145 196 -286 395 l-258 361 -154 0
c-122 0 -154 -3 -148 -12z"/>
</g>
</svg>
