<?xml version="1.0" encoding="UTF-8"?>
<svg version="1.1" xmlns="http://www.w3.org/2000/svg" width="532" height="318">
<path d="M0 0 C1.67542976 0.28604898 3.34385343 0.61781233 5 1 C5.0154612 2.22695587 5.0154612 2.22695587 5.03123474 3.47869873 C5.12922842 11.18878373 5.23174555 18.89878904 5.33933926 26.60874557 C5.39449421 30.5724692 5.44790223 34.5362003 5.49731445 38.5 C5.5450677 42.32555722 5.59741427 46.15102657 5.65294075 49.97647858 C5.6733147 51.43567974 5.69203586 52.89490494 5.70907402 54.35414886 C5.73322817 56.39862246 5.76326713 58.44293148 5.79467773 60.48730469 C5.81799416 62.23270538 5.81799416 62.23270538 5.84178162 64.0133667 C5.97455253 66.51963697 6.26982912 68.61246221 7 71 C12.58530545 63.92447206 17.96205827 56.74729994 23.0625 49.3125 C23.53921143 48.61769531 24.01592285 47.92289063 24.50708008 47.20703125 C26.91749006 43.70217695 26.91749006 43.70217695 29 40 C29.66 40 30.32 40 31 40 C31.3403125 39.0409375 31.3403125 39.0409375 31.6875 38.0625 C32.120625 37.381875 32.55375 36.70125 33 36 C35.475 35.505 35.475 35.505 38 35 C38 87.8 38 140.6 38 195 C36.02 195 34.04 195 32 195 C30.95122764 191.85368291 30.87676776 189.66455709 30.87974548 186.36225891 C30.87768349 184.6017218 30.87768349 184.6017218 30.87557983 182.80561829 C30.88097275 180.87216805 30.88097275 180.87216805 30.88647461 178.8996582 C30.88675666 177.529775 30.8865984 176.15989166 30.8860321 174.79000854 C30.88574482 171.06921727 30.89163051 167.34845814 30.89860606 163.62767434 C30.90485096 159.73991829 30.9054443 155.85216153 30.90663147 151.96440125 C30.90974142 144.60151443 30.91795031 137.23864244 30.92798096 129.87576216 C30.9391525 121.49375013 30.94465517 113.11173739 30.94967639 104.72971976 C30.96013318 87.48647126 30.97772615 70.2432372 31 53 C30.34 53 29.68 53 29 53 C27.64969315 54.47921464 27.64969315 54.47921464 26.3125 56.4453125 C25.51005859 57.56873047 25.51005859 57.56873047 24.69140625 58.71484375 C24.13324219 59.51019531 23.57507813 60.30554688 23 61.125 C22.47277344 61.86621094 21.94554687 62.60742188 21.40234375 63.37109375 C20.28351898 64.94485437 19.18133865 66.53055826 18.09465027 68.12667847 C16 71 16 71 13.48432922 73.75271606 C4.12480439 84.35459976 4.6422094 94.96945202 4.91796875 108.546875 C4.92903247 110.81217895 4.93606599 113.07750579 4.93928528 115.34283447 C4.95604238 120.06711827 5.00513268 124.78948145 5.08081055 129.51318359 C5.17716644 135.54750956 5.21688148 141.58044136 5.23548412 147.61545944 C5.25582449 153.40527834 5.30470354 159.19475666 5.35546875 164.984375 C5.36620454 166.62334873 5.36620454 166.62334873 5.37715721 168.29543304 C5.40267442 171.40800679 5.44852074 174.51960874 5.50073242 177.63183594 C5.50565704 178.53701462 5.51058167 179.4421933 5.51565552 180.37480164 C5.70548318 189.16507304 7.57816497 196.93518466 13 204 C13.680625 204.9075 14.36125 205.815 15.0625 206.75 C16.98035763 209.18085573 16.98035763 209.18085573 20 211 C20.33 163.81 20.66 116.62 21 68 C22.65 67.67 24.3 67.34 26 67 C27 68 27 68 27.12304783 70.45003605 C27.12212604 71.54789149 27.12120424 72.64574694 27.12025452 73.77687073 C27.12231651 75.65949615 27.12231651 75.65949615 27.12442017 77.58015442 C27.12088055 78.98385644 27.11724574 80.38755822 27.11352539 81.79125977 C27.11324353 83.25936888 27.11340124 84.72747813 27.1139679 86.19558716 C27.1142559 90.19334657 27.10835874 94.19107624 27.10139394 98.18882871 C27.09516085 102.36220733 27.09455664 106.53558656 27.09336853 110.70896912 C27.09025508 118.61732792 27.08204151 126.52567297 27.07201904 134.4340257 C27.06085832 143.43508494 27.05534756 152.43614482 27.05032361 161.43720925 C27.03985891 179.95814731 27.0222592 198.47907255 27 217 C27.92941406 217.30808594 28.85882813 217.61617187 29.81640625 217.93359375 C31.86478959 218.61973933 33.90605444 219.32772182 35.9375 220.0625 C49.49422299 224.21251724 63.12741606 222.15152783 75.51171875 215.57421875 C83.09197792 210.77854458 88.6584773 205.35380676 92 197 C89.19252545 196.2204542 86.57970192 195.8289851 83.671875 195.68359375 C82.87265625 195.64169922 82.0734375 195.59980469 81.25 195.55664062 C80.425 195.51732422 79.6 195.47800781 78.75 195.4375 C77.48929687 195.37272461 77.48929687 195.37272461 76.203125 195.30664062 C74.13559329 195.20091457 72.06781719 195.09998705 70 195 C70.33 193.35 70.66 191.7 71 190 C80.57 190 90.14 190 100 190 C98.8095797 200.71378267 95.12915098 209.0573291 87.0546875 216.4140625 C73.38590526 226.96449138 58.00727105 230.83161274 41 229 C27.38830655 226.43066656 14.20375726 218.81586558 6.14453125 207.36328125 C-1.35557453 194.38161667 -1.46582671 181.59758292 -1.51171875 167.01953125 C-1.52858791 164.99499945 -1.54674112 162.97047799 -1.56611633 160.94596863 C-1.61337951 155.65086089 -1.64334156 150.35579506 -1.66955566 145.06054688 C-1.69948134 139.64379607 -1.74597011 134.22718931 -1.79101562 128.81054688 C-1.87677897 118.20710698 -1.94424352 107.60363721 -2 97 C-3.43540665 98.91221467 -4.87059652 100.82459141 -6.30566406 102.73706055 C-6.70886871 103.27415398 -7.11207336 103.81124741 -7.52749634 104.36461639 C-10.62693315 108.49565534 -13.70092891 112.64420795 -16.75 116.8125 C-17.19214844 117.41513672 -17.63429688 118.01777344 -18.08984375 118.63867188 C-18.52941406 119.23873047 -18.96898437 119.83878906 -19.421875 120.45703125 C-19.85048828 121.03533691 -20.27910156 121.61364258 -20.72070312 122.20947266 C-21.60608393 123.44866785 -22.45172741 124.71686417 -23.26367188 126.00537109 C-24.515625 127.94921875 -24.515625 127.94921875 -27 131 C-29.45751953 131.4152832 -29.45751953 131.4152832 -32 131 C-33.67822266 129.50976562 -33.67822266 129.50976562 -35.1640625 127.40625 C-35.72343506 126.63071777 -36.28280762 125.85518555 -36.85913086 125.05615234 C-37.44186768 124.21262207 -38.02460449 123.3690918 -38.625 122.5 C-39.23674072 121.64229004 -39.84848145 120.78458008 -40.47875977 119.90087891 C-42.33924711 117.28065828 -44.17396754 114.64432294 -46 112 C-46.53061035 111.23268555 -47.0612207 110.46537109 -47.60791016 109.67480469 C-49.50846611 106.91921432 -51.40470905 104.16098991 -53.28295898 101.39013672 C-56.28799173 96.96840521 -59.45283884 92.72934305 -62.85546875 88.6015625 C-64 87 -64 87 -64 85 C-64.66 85 -65.32 85 -66 85 C-67.98 81.535 -67.98 81.535 -70 78 C-73.63 73.38 -77.26 68.76 -81 64 C-81.33 105.58 -81.66 147.16 -82 190 C-79.36 190 -76.72 190 -74 190 C-74.00222061 188.69930069 -74.00444122 187.39860138 -74.00672913 186.05848694 C-74.0269581 173.82968235 -74.04197096 161.60088113 -74.05181217 149.37206364 C-74.05704162 143.08437976 -74.06414039 136.79670934 -74.07543945 130.5090332 C-74.08626614 124.44662277 -74.09227637 118.38422531 -74.09487724 112.32180595 C-74.09673189 110.00323723 -74.10035325 107.68466926 -74.10573006 105.36610603 C-74.11293758 102.13085492 -74.11399106 98.89565817 -74.11352539 95.66040039 C-74.11712067 94.69151886 -74.12071594 93.72263733 -74.12442017 92.72439575 C-74.1230455 91.84794907 -74.12167084 90.97150238 -74.12025452 90.0684967 C-74.12117631 89.30248673 -74.1220981 88.53647676 -74.12304783 87.74725437 C-74 86 -74 86 -73 85 C-71.35 85 -69.7 85 -68 85 C-67.67 119.32 -67.34 153.64 -67 189 C-63.04 189.33 -59.08 189.66 -55 190 C-54.67 191.32 -54.34 192.64 -54 194 C-55 195 -55 195 -57.59204102 195.11352539 C-58.71795654 195.10828857 -59.84387207 195.10305176 -61.00390625 195.09765625 C-62.21884766 195.09443359 -63.43378906 195.09121094 -64.68554688 195.08789062 C-65.96494141 195.07951172 -67.24433594 195.07113281 -68.5625 195.0625 C-69.84576172 195.05798828 -71.12902344 195.05347656 -72.45117188 195.04882812 C-75.63416022 195.03699545 -78.81705762 195.02051068 -82 195 C-81.98839844 195.84304688 -81.97679687 196.68609375 -81.96484375 197.5546875 C-81.95130859 199.19824219 -81.95130859 199.19824219 -81.9375 200.875 C-81.92589844 201.96554687 -81.91429687 203.05609375 -81.90234375 204.1796875 C-82 207 -82 207 -83 209 C-87.875 208.125 -87.875 208.125 -89 207 C-89.23363881 205.15108054 -89.41303635 203.29511969 -89.5625 201.4375 C-89.64628906 200.42558594 -89.73007813 199.41367187 -89.81640625 198.37109375 C-89.87699219 197.58863281 -89.93757812 196.80617188 -90 196 C-92.31 195.34 -94.62 194.68 -97 194 C-97.04668272 173.84233234 -97.08197053 153.68467562 -97.10362434 133.52696514 C-97.11394499 124.16777936 -97.12802037 114.80862714 -97.15087891 105.44946289 C-97.17078867 97.29376622 -97.1837107 89.13809384 -97.18817699 80.98237354 C-97.19078847 76.66240451 -97.1969429 72.342505 -97.21146011 68.02255821 C-97.22500593 63.95886177 -97.22922875 59.89526366 -97.22621536 55.83154678 C-97.22676687 54.33796085 -97.23076218 52.84437173 -97.23841095 51.35080528 C-97.24832471 49.3156152 -97.24478587 47.2803727 -97.24050903 45.24516296 C-97.24235262 44.10490504 -97.24419621 42.96464712 -97.24609566 41.78983593 C-97 39 -97 39 -95 36 C-93.35 36.33 -91.7 36.66 -90 37 C-89.97494385 36.37432129 -89.9498877 35.74864258 -89.92407227 35.10400391 C-89.80824727 32.27745381 -89.68546015 29.45124831 -89.5625 26.625 C-89.52318359 25.64015625 -89.48386719 24.6553125 -89.44335938 23.640625 C-89.40146484 22.69960937 -89.35957031 21.75859375 -89.31640625 20.7890625 C-89.27974854 19.91975098 -89.24309082 19.05043945 -89.20532227 18.15478516 C-89 16 -89 16 -88 14 C-86.35 14 -84.7 14 -83 14 C-81.51650215 16.9669957 -81.94622965 19.96380088 -82 23.2109375 C-82.00116031 24.69921887 -81.99977073 26.18750397 -81.99609375 27.67578125 C-81.99171166 30.01143663 -81.99928984 32.34309683 -82.05126953 34.67822266 C-82.29863046 46.8301536 -80.40152318 52.83337079 -72 62 C-71.1533721 63.14374192 -70.32621413 64.30282071 -69.5390625 65.48828125 C-65.69493273 71.16033396 -61.75824477 76.73941638 -57.6875 82.25 C-52.16793615 89.72592642 -46.81526324 97.31369999 -41.46972656 104.91455078 C-39.09495693 108.28419898 -36.70602542 111.64365729 -34.3125 115 C-33.89025146 115.59369385 -33.46800293 116.1873877 -33.03295898 116.79907227 C-31.15768654 119.51523254 -31.15768654 119.51523254 -29 122 C-28.01 120.35 -27.02 118.7 -26 117 C-26.86882812 116.67 -27.73765625 116.34 -28.6328125 116 C-33.03482654 113.38534665 -35.09087914 110.21271831 -37.875 106 C-38.93428971 104.44750292 -39.99418501 102.89541888 -41.0546875 101.34375 C-41.56225586 100.59222656 -42.06982422 99.84070313 -42.59277344 99.06640625 C-44.33921674 96.50188575 -46.15825028 93.99676531 -48 91.5 C-51.85125438 86.23741637 -55.60129216 80.90614735 -59.34301758 75.56542969 C-61.90522324 71.92057331 -64.49898282 68.30883805 -67.1796875 64.75 C-67.6852417 64.07614258 -68.1907959 63.40228516 -68.71166992 62.70800781 C-69.6704292 61.43600626 -70.63636874 60.16937377 -71.6105957 58.90917969 C-74.02732247 55.69770861 -75.86200703 53.09621245 -76 49 C-75.34 48.34 -74.68 47.68 -74 47 C-71.39531534 47.19712548 -70.2811017 47.71180872 -68.45117188 49.58789062 C-67.96197266 50.27044922 -67.47277344 50.95300781 -66.96875 51.65625 C-66.41179443 52.42267822 -65.85483887 53.18910645 -65.28100586 53.97875977 C-64.69327393 54.81076904 -64.10554199 55.64277832 -63.5 56.5 C-62.57296265 57.78571899 -62.57296265 57.78571899 -61.62719727 59.09741211 C-59.73919138 61.72309803 -57.86729128 64.35955299 -56 67 C-55.46745605 67.75039551 -54.93491211 68.50079102 -54.38623047 69.27392578 C-51.92624569 72.74232199 -49.47720367 76.21817627 -47.03515625 79.69921875 C-43.13980334 85.23878944 -39.16384678 90.7200136 -35.18725586 96.20141602 C-34.6691333 96.91612061 -34.15101074 97.6308252 -33.6171875 98.3671875 C-32.93052002 99.31247314 -32.93052002 99.31247314 -32.22998047 100.27685547 C-31.12187193 101.82926318 -30.05799145 103.41301282 -29 105 C-22.05727639 102.39490362 -17.43821972 95.58202345 -14.17358398 89.23809814 C-9.96988876 77.63945852 -11.49367234 63.61383546 -11.71246338 51.45623779 C-11.77551421 47.22547546 -11.76931975 42.99482131 -11.76953125 38.76367188 C-11.77985968 30.50772525 -11.86514372 22.25484897 -12 14 C-10.34385343 13.61781233 -8.67542976 13.28604898 -7 13 C-5.22685128 14.77314872 -5.83816631 17.35128226 -5.81054688 19.75390625 C-5.79382935 20.98608887 -5.77711182 22.21827148 -5.7598877 23.48779297 C-5.75320572 24.15115662 -5.74652374 24.81452026 -5.73963928 25.49798584 C-5.71861618 27.57572534 -5.69158431 29.65330921 -5.66296387 31.73095703 C-5.60316479 36.15391078 -5.5511981 40.57693956 -5.5 45 C-5.44056223 50.09925995 -5.37785941 55.19844672 -5.30812073 60.2975769 C-5.28180741 62.33190563 -5.260823 64.36624245 -5.2401123 66.40063477 C-5.15227204 73.00749301 -4.88120396 79.44983617 -4 86 C-1.08907948 83.08907948 -1.70001664 80.07082781 -1.69702148 76.16967773 C-1.68436249 74.95732956 -1.68436249 74.95732956 -1.67144775 73.7204895 C-1.64559855 71.04151852 -1.63351429 68.36265774 -1.62109375 65.68359375 C-1.60492843 63.82795834 -1.58774947 61.9723315 -1.56959534 60.11671448 C-1.52383675 55.22628735 -1.48906624 50.33584898 -1.45739746 45.4453125 C-1.40558347 37.61281659 -1.3405562 29.78044637 -1.26918221 21.94810677 C-1.2462667 19.20430238 -1.23004911 16.46051414 -1.21446228 13.71665955 C-1.20106111 12.04474712 -1.18744679 10.37283639 -1.17358398 8.70092773 C-1.17097061 7.9315538 -1.16835724 7.16217987 -1.16566467 6.36949158 C-1.11363476 1.11363476 -1.11363476 1.11363476 0 0 Z M-90 50 C-90 96.2 -90 142.4 -90 190 C-89.67 190 -89.34 190 -89 190 C-89 143.8 -89 97.6 -89 50 C-89.33 50 -89.66 50 -90 50 Z M5 73 C6 75 6 75 6 75 Z " fill="#F9F9F9" transform="translate(267,65)"/>
<path d="M0 0 C3 2 3 2 3.6875 4.125 C3.790625 4.74375 3.89375 5.3625 4 6 C5.32 6 6.64 6 8 6 C8.66 7.65 9.32 9.3 10 11 C9.34 11 8.68 11 8 11 C7.67 53.24 7.34 95.48 7 139 C9.64 139 12.28 139 15 139 C14.99777939 137.69930069 14.99555878 136.39860138 14.99327087 135.05848694 C14.9730419 122.82968235 14.95802904 110.60088113 14.94818783 98.37206364 C14.94295838 92.08437976 14.93585961 85.79670934 14.92456055 79.5090332 C14.91373386 73.44662277 14.90772363 67.38422531 14.90512276 61.32180595 C14.90326811 59.00323723 14.89964675 56.68466926 14.89426994 54.36610603 C14.88706242 51.13085492 14.88600894 47.89565817 14.88647461 44.66040039 C14.88287933 43.69151886 14.87928406 42.72263733 14.87557983 41.72439575 C14.8769545 40.84794907 14.87832916 39.97150238 14.87974548 39.0684967 C14.87882369 38.30248673 14.8779019 37.53647676 14.87695217 36.74725437 C15 35 15 35 16 34 C17.65 34 19.3 34 21 34 C21.33 68.32 21.66 102.64 22 138 C25.96 138.33 29.92 138.66 34 139 C34.33 140.32 34.66 141.64 35 143 C34 144 34 144 31.40795898 144.11352539 C30.28204346 144.10828857 29.15612793 144.10305176 27.99609375 144.09765625 C26.78115234 144.09443359 25.56621094 144.09121094 24.31445312 144.08789062 C23.03505859 144.07951172 21.75566406 144.07113281 20.4375 144.0625 C19.15423828 144.05798828 17.87097656 144.05347656 16.54882812 144.04882812 C13.36583978 144.03699545 10.18294238 144.02051068 7 144 C7.01160156 144.84304688 7.02320313 145.68609375 7.03515625 146.5546875 C7.04869141 148.19824219 7.04869141 148.19824219 7.0625 149.875 C7.07410156 150.96554687 7.08570313 152.05609375 7.09765625 153.1796875 C7 156 7 156 6 158 C1.125 157.125 1.125 157.125 0 156 C-0.07258946 153.81360547 -0.08373783 151.62499611 -0.0625 149.4375 C-0.05347656 148.23996094 -0.04445312 147.04242188 -0.03515625 145.80859375 C-0.02355469 144.88175781 -0.01195312 143.95492187 0 143 C-1.32 142.67 -2.64 142.34 -4 142 C-1 142 2 142 5 142 C5.33 141.67 5.66 141.34 6 141 C4.68798827 139.43750191 4.68798827 139.43750191 3 138 C2.01 138 1.02 138 0 138 C0 92.46 0 46.92 0 0 Z " fill="#F4F5F5" transform="translate(178,116)"/>
<path d="M0 0 C1.65 0 3.3 0 5 0 C6.48349785 2.9669957 6.05377035 5.96380088 6 9.2109375 C5.99883969 10.69921887 6.00022927 12.18750397 6.00390625 13.67578125 C6.00828834 16.01143663 6.00071016 18.34309683 5.94873047 20.67822266 C5.70137904 32.82968709 7.59190382 38.84092429 16 48 C16.96044118 49.26282447 17.90271538 50.54004958 18.8125 51.83984375 C20.28635995 53.92693471 21.76564657 56.01020275 23.25 58.08984375 C24.92866937 60.88138098 25.81965141 62.75936125 26 66 C25.34 66.66 24.68 67.32 24 68 C21 68 21 68 19.37426758 66.37939453 C18.80345459 65.63802246 18.2326416 64.89665039 17.64453125 64.1328125 C17.02255859 63.32972656 16.40058594 62.52664062 15.75976562 61.69921875 C15.11716797 60.84972656 14.47457031 60.00023437 13.8125 59.125 C13.15830078 58.28324219 12.50410156 57.44148438 11.83007812 56.57421875 C7 50.27849648 7 50.27849648 7 48 C7.66 48 8.32 48 9 48 C7.6446674 45.46326712 7.6446674 45.46326712 6 43 C5.34 43 4.68 43 4 43 C3.67 82.6 3.34 122.2 3 163 C2.67 163 2.34 163 2 163 C1.99668985 162.36885631 1.99337971 161.73771261 1.98996925 161.08744335 C1.9087946 145.73948213 1.81672049 130.39163103 1.71247292 115.04381084 C1.66232345 107.62175755 1.61588086 100.19971543 1.578125 92.77758789 C1.5452126 86.30943787 1.50538565 79.84137399 1.45720994 73.37331897 C1.43193736 69.94764591 1.41015841 66.52203004 1.39665604 63.09628868 C1.38146371 59.27461922 1.35083596 55.45315946 1.31884766 51.6315918 C1.31668747 50.49223679 1.31452728 49.35288177 1.31230164 48.17900085 C1.30113815 47.13993591 1.28997467 46.10087097 1.2784729 45.03031921 C1.27294214 44.1260403 1.26741138 43.22176138 1.26171303 42.29008007 C1.1448657 39.72260491 1.1448657 39.72260491 -1 37 C-1 82.54 -1 128.08 -1 175 C-0.01 175 0.98 175 2 175 C2 171.37 2 167.74 2 164 C2.33 164 2.66 164 3 164 C3 168.29 3 172.58 3 177 C4.32 177.66 5.64 178.32 7 179 C6.01 179.33 5.02 179.66 4 180 C3.67 183.63 3.34 187.26 3 191 C2.67 191 2.34 191 2 191 C1.67 187.37 1.34 183.74 1 180 C0.34 180 -0.32 180 -1 180 C-1.495 180.99 -1.495 180.99 -2 182 C-4.31 181.34 -6.62 180.68 -9 180 C-9.04668272 159.84233234 -9.08197053 139.68467562 -9.10362434 119.52696514 C-9.11394499 110.16777936 -9.12802037 100.80862714 -9.15087891 91.44946289 C-9.17078867 83.29376622 -9.1837107 75.13809384 -9.18817699 66.98237354 C-9.19078847 62.66240451 -9.1969429 58.342505 -9.21146011 54.02255821 C-9.22500593 49.95886177 -9.22922875 45.89526366 -9.22621536 41.83154678 C-9.22676687 40.33796085 -9.23076218 38.84437173 -9.23841095 37.35080528 C-9.24832471 35.3156152 -9.24478587 33.2803727 -9.24050903 31.24516296 C-9.24235262 30.10490504 -9.24419621 28.96464712 -9.24609566 27.78983593 C-9 25 -9 25 -7 22 C-5.35 22.33 -3.7 22.66 -2 23 C-1.97494385 22.37432129 -1.9498877 21.74864258 -1.92407227 21.10400391 C-1.80824727 18.27745381 -1.68546015 15.45124831 -1.5625 12.625 C-1.52318359 11.64015625 -1.48386719 10.6553125 -1.44335938 9.640625 C-1.40146484 8.69960937 -1.35957031 7.75859375 -1.31640625 6.7890625 C-1.27974854 5.91975098 -1.24309082 5.05043945 -1.20532227 4.15478516 C-1 2 -1 2 0 0 Z " fill="#F5F5F6" transform="translate(179,79)"/>
<path d="M0 0 C1.67542976 0.28604898 3.34385343 0.61781233 5 1 C5.00586624 1.87315353 5.01173248 2.74630707 5.01777649 3.6459198 C5.07599447 11.92723368 5.14823443 20.20828615 5.23571491 28.4893446 C5.2801947 32.74539944 5.31949819 37.00136347 5.34643555 41.25756836 C5.37269446 45.37506779 5.41325077 49.49221345 5.46318626 53.60949135 C5.47970394 55.17008329 5.49131119 56.73073619 5.49761391 58.29140282 C5.57549955 75.82565393 8.45609101 91.89478769 21 105 C34.95360634 116.67498712 50.88937638 121.44805643 69 120 C72.82876096 119.35097219 76.35262649 118.3219738 80 117 C80.99902344 116.64808594 81.99804688 116.29617188 83.02734375 115.93359375 C97.39390776 110.44422566 107.24214324 100.67886644 113.74609375 86.8203125 C114.15988281 85.88960938 114.57367188 84.95890625 115 84 C115.51240234 82.85144531 115.51240234 82.85144531 116.03515625 81.6796875 C116.71030041 80.12842603 117.35942397 78.56585253 118 77 C119.65 77.33 121.3 77.66 123 78 C121.31700485 91.1157553 114.82112104 103.60313334 104.51171875 112.03515625 C99.86736025 115.35456877 95.02374691 118.29490551 90 121 C89.05125 121.53625 88.1025 122.0725 87.125 122.625 C83.15475231 124.37190899 79.25114896 125.21610019 75 126 C73.4221875 126.309375 73.4221875 126.309375 71.8125 126.625 C52.57924931 128.51679515 34.86870668 124.87716381 19.42675781 112.76611328 C8.56550464 103.63202157 0.96436233 91.19474068 -1 77 C-1.28038654 71.17600292 -1.2577121 65.36070746 -1.23046875 59.53125 C-1.22927504 57.84257035 -1.22882419 56.15389002 -1.2290802 54.46520996 C-1.22752372 50.94518819 -1.21929289 47.42526934 -1.20581055 43.90527344 C-1.18871702 39.38459805 -1.18499962 34.86403432 -1.18575573 30.34333038 C-1.18548464 26.86563036 -1.18001494 23.38795493 -1.17275429 19.91026306 C-1.16956603 18.24202154 -1.16759985 16.57377724 -1.16686058 14.90553284 C-1.16470458 12.58606137 -1.15597968 10.26671123 -1.14526367 7.94726562 C-1.14571686 7.25434418 -1.14617004 6.56142273 -1.14663696 5.84750366 C-1.11448527 1.11448527 -1.11448527 1.11448527 0 0 Z " fill="#FAFAFA" transform="translate(256,178)"/>
<path d="M0 0 C3 2 3 2 3.6875 4.125 C3.8421875 5.053125 3.8421875 5.053125 4 6 C5.32 6 6.64 6 8 6 C8.66 7.65 9.32 9.3 10 11 C9.34 11 8.68 11 8 11 C7.99761165 11.64145116 7.99522329 12.28290232 7.99276257 12.94379139 C7.93366078 28.54214275 7.85814195 44.14031476 7.76428509 59.73849201 C7.71929392 67.28162045 7.67988703 74.82470133 7.65356445 82.36791992 C7.63061113 88.94157469 7.59724327 95.51507934 7.55129844 102.08861512 C7.52732992 105.57020601 7.50862507 109.05164791 7.50238609 112.53331947 C7.49523123 116.4173174 7.46482792 120.30094132 7.43237305 124.18481445 C7.43380814 125.34287094 7.43524323 126.50092743 7.4367218 127.69407654 C7.41791458 129.27791641 7.41791458 129.27791641 7.39872742 130.89375305 C7.39411845 131.81278066 7.38950949 132.73180826 7.38476086 133.67868519 C7 136 7 136 5.72507954 137.88164043 C5.15580329 138.25069909 4.58652704 138.61975775 4 139 C2.68 138.67 1.36 138.34 0 138 C0 92.46 0 46.92 0 0 Z " fill="#E2E3E4" transform="translate(178,116)"/>
<path d="M0 0 C0.99 0 1.98 0 3 0 C4.8125 2.25 4.8125 2.25 6 5 C5.1875 7.3125 5.1875 7.3125 4 9 C3.67 8.01 3.34 7.02 3 6 C2.99668985 6.6911449 2.99337971 7.38228979 2.98996925 8.09437847 C2.90874742 24.91178812 2.81665765 41.72909956 2.71247292 58.54638195 C2.66235201 66.67909553 2.61590902 74.81179905 2.578125 82.94458008 C2.54518296 90.03314437 2.50533951 97.12163053 2.45720994 104.21010858 C2.43196692 107.96336898 2.41017917 111.71657769 2.39665604 115.46990013 C2.38142996 119.65997927 2.35079621 123.84980992 2.31884766 128.03979492 C2.31668747 129.28416824 2.31452728 130.52854156 2.31230164 131.81062317 C2.30113815 132.95340729 2.28997467 134.09619141 2.2784729 135.27360535 C2.27294214 136.2645328 2.26741138 137.25546026 2.26171303 138.27641582 C1.98305443 141.1763485 1.20953681 143.36315772 0 146 C-0.33 146 -0.66 146 -1 146 C-1.02333542 127.25927575 -1.04098235 108.51855443 -1.05181217 89.77781868 C-1.05697376 81.07664632 -1.06401385 72.37548298 -1.07543945 63.67431641 C-1.08539047 56.09251839 -1.09185443 48.5107269 -1.09408849 40.92892253 C-1.09539489 36.91249781 -1.09847626 32.89609176 -1.10573006 28.879673 C-1.11249685 25.10244943 -1.11461561 21.32525229 -1.11310768 17.54802322 C-1.11338371 16.15883745 -1.11538494 14.76965083 -1.11920547 13.38047028 C-1.12415291 11.48942193 -1.12239515 9.59835952 -1.12025452 7.70730591 C-1.12117631 6.64724398 -1.1220981 5.58718204 -1.12304783 4.49499702 C-1 2 -1 2 0 0 Z " fill="#E8E9E9" transform="translate(175,110)"/>
<path d="M0 0 C1.65 0.33 3.3 0.66 5 1 C3.42372229 13.28409524 -2.31394198 24.17327707 -11 33 C-13.2421875 34.2734375 -13.2421875 34.2734375 -15 35 C-14.67 33.68 -14.34 32.36 -14 31 C-13.34 31 -12.68 31 -12 31 C-12 30.34 -12 29.68 -12 29 C-12.51949219 29.39832031 -13.03898437 29.79664063 -13.57421875 30.20703125 C-23.83211679 38 -23.83211679 38 -27 38 C-27.495 38.99 -27.495 38.99 -28 40 C-30.109375 41.03515625 -30.109375 41.03515625 -32.75 42.0625 C-33.61109375 42.40410156 -34.4721875 42.74570312 -35.359375 43.09765625 C-37.91796171 43.97196621 -40.3385187 44.538731 -43 45 C-43.88171875 45.18304688 -44.7634375 45.36609375 -45.671875 45.5546875 C-50.20859528 46.16171345 -54.67849095 46.14476157 -59.25 46.125 C-60.16007812 46.12886719 -61.07015625 46.13273437 -62.0078125 46.13671875 C-63.31105469 46.13478516 -63.31105469 46.13478516 -64.640625 46.1328125 C-65.42985352 46.13168457 -66.21908203 46.13055664 -67.03222656 46.12939453 C-69 46 -69 46 -71 45 C-71 44.34 -71 43.68 -71 43 C-70.39115967 43.01571045 -69.78231934 43.0314209 -69.1550293 43.04760742 C-53.28169618 43.65144075 -53.28169618 43.65144075 -38 40 C-36.515 39.47212891 -36.515 39.47212891 -35 38.93359375 C-20.61590801 33.48561891 -10.75434091 23.67137491 -4.25390625 9.8203125 C-3.63322266 8.42425781 -3.63322266 8.42425781 -3 7 C-2.48759766 5.85144531 -2.48759766 5.85144531 -1.96484375 4.6796875 C-1.28969959 3.12842603 -0.64057603 1.56585253 0 0 Z " fill="#F1F1F2" transform="translate(374,255)"/>
<path d="M0 0 C0.33 0 0.66 0 1 0 C1.33 41.58 1.66 83.16 2 126 C2.99 125.01 2.99 125.01 4 124 C4.33 124.99 4.66 125.98 5 127 C5.99 127 6.98 127 8 127 C8 123.37 8 119.74 8 116 C8.33 116 8.66 116 9 116 C9 120.29 9 124.58 9 129 C10.32 129.66 11.64 130.32 13 131 C12.01 131.33 11.02 131.66 10 132 C9.67 135.63 9.34 139.26 9 143 C8.67 143 8.34 143 8 143 C7.67 139.37 7.34 135.74 7 132 C6.34 132 5.68 132 5 132 C4.505 132.99 4.505 132.99 4 134 C1.69 133.34 -0.62 132.68 -3 132 C-3.05423638 130.08364783 -3.09289963 128.16685075 -3.125 126.25 C-3.14820313 125.18265625 -3.17140625 124.1153125 -3.1953125 123.015625 C-3 120 -3 120 -2.00519753 118.1168251 C-0.81743407 115.61553811 -0.73945815 113.87655502 -0.7215271 111.11517334 C-0.71036362 110.13363281 -0.69920013 109.15209229 -0.68769836 108.14080811 C-0.68553818 107.07050354 -0.68337799 106.00019897 -0.68115234 104.89746094 C-0.67110672 103.76546265 -0.6610611 102.63346436 -0.65071106 101.46716309 C-0.61980305 97.72290559 -0.60282252 93.97871984 -0.5859375 90.234375 C-0.56723201 87.63933695 -0.54765907 85.04430502 -0.5272522 82.44927979 C-0.48111349 76.31539357 -0.44372873 70.18151114 -0.41057932 64.04754281 C-0.37234645 57.06324521 -0.32293937 50.07904062 -0.27259517 43.09482145 C-0.16929945 28.72995113 -0.08003139 14.36501783 0 0 Z " fill="#FDFDFD" transform="translate(173,127)"/>
<path d="M0 0 C0.66 0.33 1.32 0.66 2 1 C2 24.76 2 48.52 2 73 C0.515 73.495 0.515 73.495 -1 74 C-1.02312484 64.49925675 -1.0409158 54.99852312 -1.05181217 45.49775791 C-1.05704069 41.08662996 -1.06413777 36.6755212 -1.07543945 32.2644043 C-1.08626944 28.01098885 -1.09227707 23.75759191 -1.09487724 19.50416374 C-1.09673129 17.87778367 -1.10035152 16.25140466 -1.10573006 14.62503242 C-1.11294198 12.35489807 -1.11399088 10.08484115 -1.11352539 7.81469727 C-1.115746 6.52008072 -1.11796661 5.22546417 -1.12025452 3.89161682 C-1 1 -1 1 0 0 Z " fill="#EAEAEA" transform="translate(194,175)"/>
<path d="M0 0 C0.99 0 1.98 0 3 0 C4.8125 2.25 4.8125 2.25 6 5 C5.1875 7.3125 5.1875 7.3125 4 9 C3.67 8.01 3.34 7.02 3 6 C2.98786972 6.94174324 2.98786972 6.94174324 2.97549438 7.9025116 C2.889401 14.44017711 2.789895 20.97754108 2.68261719 27.51489258 C2.64434698 29.95429417 2.6094907 32.39375182 2.578125 34.83325195 C2.53243255 38.34086127 2.47444395 41.84808534 2.4140625 45.35546875 C2.40251129 46.44522507 2.39096008 47.53498138 2.37905884 48.65776062 C2.35918915 49.67844131 2.33931946 50.69912201 2.31884766 51.75073242 C2.29886215 53.09309212 2.29886215 53.09309212 2.2784729 54.46257019 C1.97138559 57.26073292 1.15344103 59.44387913 0 62 C-0.33 62 -0.66 62 -1 62 C-1.02314533 54.21151879 -1.04092629 46.4230456 -1.05181217 38.63453865 C-1.05703619 35.01822828 -1.06412515 31.40194139 -1.07543945 27.78564453 C-1.08628538 24.29731896 -1.09228047 20.80901602 -1.09487724 17.3206749 C-1.09763081 15.33862308 -1.1054401 13.3565804 -1.11329651 11.37454224 C-1.11337204 10.17344818 -1.11344757 8.97235413 -1.11352539 7.73486328 C-1.115746 6.67341095 -1.11796661 5.61195862 -1.12025452 4.51834106 C-1 2 -1 2 0 0 Z " fill="#EFEFF0" transform="translate(175,110)"/>
<path d="M0 0 C0.99 0.495 0.99 0.495 2 1 C2.33 28.72 2.66 56.44 3 85 C2.01 85 1.02 85 0 85 C0 56.95 0 28.9 0 0 Z " fill="#D0D0D2" transform="translate(178,169)"/>
<path d="M0 0 C0.66 0 1.32 0 2 0 C2.15367978 9.61377474 2.30186146 19.22761371 2.4429636 28.84158134 C2.50865228 33.30540492 2.57625692 37.76918255 2.64819336 42.23291016 C2.71750578 46.5381406 2.78184661 50.84341891 2.84269524 55.14877701 C2.86682871 56.7938928 2.89277396 58.43898301 2.92053413 60.0840416 C2.9590177 62.38264718 2.99114215 64.68125818 3.02172852 66.97998047 C3.04171402 68.2901413 3.06169952 69.60030212 3.08229065 70.95016479 C3 74 3 74 2 76 C1.34 76 0.68 76 0 76 C0 50.92 0 25.84 0 0 Z " fill="#EDEDEE" transform="translate(270,67)"/>
<path d="M0 0 C0.33 0 0.66 0 1 0 C2.18011774 7.58759049 2.2414523 15.15868122 2.3515625 22.82421875 C2.37472313 24.25812643 2.39811371 25.69203041 2.42172241 27.12593079 C2.46992696 30.1172017 2.51489231 33.1084995 2.55761719 36.09985352 C2.61259931 39.92636446 2.67644734 43.75266889 2.74279213 47.57899761 C2.79293428 50.53437427 2.8380233 53.4898119 2.88163376 56.44529152 C2.90312634 57.85626626 2.92626188 59.267217 2.9510994 60.67813683 C2.9851188 62.6495183 3.01151721 64.62102681 3.03759766 66.5925293 C3.05456696 67.71201462 3.07153625 68.83149994 3.08901978 69.98490906 C2.95611434 74.48640278 2.51794893 77.2230766 0 81 C0 54.27 0 27.54 0 0 Z " fill="#EAEAEC" transform="translate(266,68)"/>
<path d="M0 0 C0.33 0 0.66 0 1 0 C1.80019807 10.17381727 2.13833128 20.25627693 2.09765625 30.46484375 C2.09578396 31.87830047 2.09436391 33.29175785 2.09336853 34.70521545 C2.0896071 38.36947521 2.07983388 42.03369335 2.06866455 45.69793701 C2.05831079 49.45942624 2.05384145 53.22092241 2.04882812 56.98242188 C2.03820372 64.32163326 2.02120722 71.66081073 2 79 C1.01 79.495 1.01 79.495 0 80 C-0.8983669 75.43671731 -1.09309223 71.17244992 -1.02172852 66.52587891 C-1.01212097 65.80323853 -1.00251343 65.08059814 -0.99261475 64.33605957 C-0.95984011 61.96612125 -0.91942714 59.59637994 -0.87890625 57.2265625 C-0.85458403 55.57604653 -0.83074155 53.92552343 -0.80735779 52.2749939 C-0.74472589 47.9447208 -0.6756008 43.61457505 -0.60510254 39.28442383 C-0.53422961 34.86024746 -0.46952636 30.43598128 -0.40429688 26.01171875 C-0.27555412 17.34104633 -0.13994848 8.67049876 0 0 Z " fill="#EDEDEF" transform="translate(288,198)"/>
<path d="M0 0 C2.90497155 2.90497155 2.3544517 5.95399306 2.4140625 9.8515625 C2.44311172 11.01261002 2.44311172 11.01261002 2.4727478 12.19711304 C2.5325983 14.67296275 2.57895011 17.14885883 2.625 19.625 C2.66317482 21.30210377 2.70222625 22.97918784 2.7421875 24.65625 C2.83830409 28.77067353 2.92231439 32.88518886 3 37 C1.68 37 0.36 37 -1 37 C-1.0246501 31.89136104 -1.04283607 26.78275641 -1.05493164 21.67407227 C-1.05997204 19.93480832 -1.0668043 18.19554864 -1.07543945 16.45629883 C-1.08751792 13.96174063 -1.09323108 11.46723827 -1.09765625 8.97265625 C-1.10281754 8.19036148 -1.10797882 7.40806671 -1.11329651 6.60206604 C-1.11349226 4.73432886 -1.06199694 2.86670796 -1 1 C-0.67 0.67 -0.34 0.34 0 0 Z " fill="#E9E9E9" transform="translate(183,79)"/>
<path d="M0 0 C1.67542976 0.28604898 3.34385343 0.61781233 5 1 C3.95518663 7.70880162 2.30199356 13.0564116 -1 19 C-1.66 18.67 -2.32 18.34 -3 18 C-2.71125 17.31292969 -2.4225 16.62585938 -2.125 15.91796875 C-1.75375 15.01691406 -1.3825 14.11585938 -1 13.1875 C-0.62875 12.29417969 -0.2575 11.40085937 0.125 10.48046875 C1.16633237 7.9668567 1.16633237 7.9668567 1 5 C0.74605469 5.71027344 0.49210937 6.42054688 0.23046875 7.15234375 C-0.11371094 8.07144531 -0.45789063 8.99054688 -0.8125 9.9375 C-1.31716797 11.31228516 -1.31716797 11.31228516 -1.83203125 12.71484375 C-3 15 -3 15 -6 16 C-5.24113715 12.6720702 -4.16463435 9.5195262 -3 6.3125 C-2.649375 5.33925781 -2.29875 4.36601562 -1.9375 3.36328125 C-1 1 -1 1 0 0 Z " fill="#ECECEC" transform="translate(374,255)"/>
<path d="M0 0 C0 9.33333333 0 18.66666667 0 28 C-0.99 28 -1.98 28 -3 28 C-3.83088343 24.44986171 -4.07031086 21.33590633 -3.87890625 17.69921875 C-3.83056641 16.72275391 -3.78222656 15.74628906 -3.73242188 14.74023438 C-3.67634766 13.73283203 -3.62027344 12.72542969 -3.5625 11.6875 C-3.51029297 10.66076172 -3.45808594 9.63402344 -3.40429688 8.57617188 C-3.27507334 6.05043913 -3.14012709 3.52514739 -3 1 C-1 0 -1 0 0 0 Z " fill="#ECEAED" transform="translate(181,81)"/>
<path d="M0 0 C0.33 0 0.66 0 1 0 C1.33 12.87 1.66 25.74 2 39 C1.01 39 0.02 39 -1 39 C-1.02947599 34.75001502 -1.04695643 30.50005697 -1.0625 26.25 C-1.07087891 25.06277344 -1.07925781 23.87554687 -1.08789062 22.65234375 C-1.10867032 15.04697478 -0.77144376 7.56658475 0 0 Z " fill="#D9D9DB" transform="translate(179,215)"/>
<path d="M0 0 C1.65 0 3.3 0 5 0 C5 6.6 5 13.2 5 20 C4.01 20 3.02 20 2 20 C1.93941406 18.97519531 1.87882813 17.95039063 1.81640625 16.89453125 C1.73194974 15.53384305 1.64730433 14.17316657 1.5625 12.8125 C1.52318359 12.13896484 1.48386719 11.46542969 1.44335938 10.77148438 C1.21072435 7.10300898 0.82792989 3.58305794 0 0 Z " fill="#F6F6F6" transform="translate(194,150)"/>
<path d="M0 0 C0.99 0.33 1.98 0.66 3 1 C3.33 1.99 3.66 2.98 4 4 C4.9590625 4.6496875 4.9590625 4.6496875 5.9375 5.3125 C8.64894713 7.53095674 9.11325118 9.67469194 10 13 C10.66 13 11.32 13 12 13 C13.32 15.31 14.64 17.62 16 20 C15.01 20.33 14.02 20.66 13 21 C10.82178342 18.07090475 8.65948954 15.13042182 6.5 12.1875 C5.87996094 11.35412109 5.25992188 10.52074219 4.62109375 9.66210938 C3.74130859 8.45844727 3.74130859 8.45844727 2.84375 7.23046875 C2.29912109 6.49207764 1.75449219 5.75368652 1.19335938 4.99291992 C0 3 0 3 0 0 Z " fill="#F2F2F4" transform="translate(192,116)"/>
<path d="M0 0 C0.66 0.66 1.32 1.32 2 2 C1.54636829 3.58468677 1.08688548 5.16769924 0.625 6.75 C0.36976563 7.63171875 0.11453125 8.5134375 -0.1484375 9.421875 C-1 12 -1 12 -2.1015625 14.140625 C-3.21753322 16.10602281 -3.21753322 16.10602281 -3 19 C-3.66 19 -4.32 19 -5 19 C-6.62514468 20.45833358 -6.62514468 20.45833358 -8 22 C-8 17.61082368 -7.15123263 15.93509294 -5.125 12.125 C-3.01656795 8.14240612 -1.32545845 4.31095708 0 0 Z " fill="#FBFBFB" transform="translate(375,257)"/>
<path d="M0 0 C0.99 0 1.98 0 3 0 C2.8607039 8.35776596 -0.2217967 14.20237128 -5 21 C-5.66 21.33 -6.32 21.66 -7 22 C-6.56011842 19.14076972 -5.81484669 17.74914712 -4.0625 15.375 C-1.21050176 10.70809379 0 5.49229923 0 0 Z " fill="#F0F0F1" transform="translate(364,255)"/>
<path d="M0 0 C1.485 0.99 1.485 0.99 3 2 C3.5177665 7.43654822 3.5177665 7.43654822 3 10 C2.01 10.99 1.02 11.98 0 13 C0 8.71 0 4.42 0 0 Z " fill="#D8D8E4" transform="translate(178,116)"/>
<path d="M0 0 C0.33 0 0.66 0 1 0 C1.19448477 2.12437212 1.38038289 4.24953191 1.5625 6.375 C1.66691406 7.55835938 1.77132813 8.74171875 1.87890625 9.9609375 C2 13 2 13 1 15 C0.34 15 -0.32 15 -1 15 C-1.02685412 12.68756208 -1.04632841 10.3750373 -1.0625 8.0625 C-1.07410156 6.77472656 -1.08570313 5.48695313 -1.09765625 4.16015625 C-1 1 -1 1 0 0 Z " fill="#ECEDED" transform="translate(271,128)"/>
<path d="M0 0 C0.33 0 0.66 0 1 0 C1 5.94 1 11.88 1 18 C0.67 18 0.34 18 0 18 C-0.144375 16.7625 -0.28875 15.525 -0.4375 14.25 C-0.70594353 11.99981157 -0.9888794 10.03437276 -1.6875 7.875 C-2.17364881 4.95810712 -1.0439431 2.70197038 0 0 Z " fill="#E8E8EC" transform="translate(176,115)"/>
<path d="M0 0 C0.99 0 1.98 0 3 0 C3 0.66 3 1.32 3 2 C3.66 2 4.32 2 5 2 C8 6.38461538 8 6.38461538 8 9 C7.01 9 6.02 9 5 9 C3.35 6.03 1.7 3.06 0 0 Z " fill="#F2F2F3" transform="translate(224,162)"/>
<path d="M0 0 C1.67542976 0.28604898 3.34385343 0.61781233 5 1 C4.01 1.495 4.01 1.495 3 2 C2.61004898 3.86492402 2.61004898 3.86492402 2.5 6 C2.34375 8.1875 2.34375 8.1875 2 10 C1.01 10.495 1.01 10.495 0 11 C-0.19406478 9.35492782 -0.38007935 7.70890406 -0.5625 6.0625 C-0.66691406 5.14597656 -0.77132813 4.22945313 -0.87890625 3.28515625 C-0.91886719 2.53105469 -0.95882813 1.77695313 -1 1 C-0.67 0.67 -0.34 0.34 0 0 Z " fill="#F7F7F8" transform="translate(267,65)"/>
<path d="M0 0 C-1.09351553 3.17119503 -2.0126988 4.00783543 -4.9375 5.8125 C-8 7 -8 7 -11 6 C-10.2575 5.566875 -9.515 5.13375 -8.75 4.6875 C-6.03331818 3.08762968 -6.03331818 3.08762968 -3.8125 1.3125 C-2 0 -2 0 0 0 Z " fill="#F2F2F4" transform="translate(348,283)"/>
<path d="M0 0 C1.99954746 -0.04254356 4.00041636 -0.04080783 6 0 C7 1 7 1 7.0625 4.0625 C7.041875 5.031875 7.02125 6.00125 7 7 C6.01 6.67 5.02 6.34 4 6 C4 4.35 4 2.7 4 1 C2.68 0.67 1.36 0.34 0 0 Z " fill="#ECEBED" transform="translate(174,258)"/>
<path d="M0 0 C0.99 0.99 1.98 1.98 3 3 C2.75546876 6.34192692 2.39456443 7.60543557 0 10 C0 6.7 0 3.4 0 0 Z " fill="#EBEBEB" transform="translate(193,151)"/>
<path d="M0 0 C0.95904856 3.83619425 0.91892116 5.32431536 0 9 C-0.66 9 -1.32 9 -2 9 C-1.34 6.03 -0.68 3.06 0 0 Z " fill="#E5E5E5" transform="translate(373,256)"/>
</svg>
